<?xml version="1.0" encoding="UTF-8" standalone="no"?>
<!-- Created with Inkscape (http://www.inkscape.org/) -->

<svg
   width="456.37637mm"
   height="206.57983mm"
   viewBox="0 0 456.37637 206.57983"
   version="1.1"
   id="svg1"
   xml:space="preserve"
   inkscape:version="1.3 (0e150ed, 2023-07-21)"
   sodipodi:docname="pattern_center_title.svg"
   xmlns:inkscape="http://www.inkscape.org/namespaces/inkscape"
   xmlns:sodipodi="http://sodipodi.sourceforge.net/DTD/sodipodi-0.dtd"
   xmlns:xlink="http://www.w3.org/1999/xlink"
   xmlns="http://www.w3.org/2000/svg"
   xmlns:svg="http://www.w3.org/2000/svg"><sodipodi:namedview
     id="namedview1"
     pagecolor="#ffffff"
     bordercolor="#000000"
     borderopacity="0.25"
     inkscape:showpageshadow="2"
     inkscape:pageopacity="0.0"
     inkscape:pagecheckerboard="0"
     inkscape:deskcolor="#d1d1d1"
     inkscape:document-units="mm"
     inkscape:zoom="0.22232925"
     inkscape:cx="-3719.7086"
     inkscape:cy="2021.7763"
     inkscape:window-width="1800"
     inkscape:window-height="1040"
     inkscape:window-x="0"
     inkscape:window-y="44"
     inkscape:window-maximized="1"
     inkscape:current-layer="g1"><inkscape:page
       x="-7.707272e-05"
       y="3.3107786e-05"
       width="456.3764"
       height="206.57983"
       id="page3"
       margin="0"
       bleed="0" /></sodipodi:namedview><defs
     id="defs1"><linearGradient
       id="linearGradient2"
       inkscape:collect="always"><stop
         style="stop-color:#ffc300;stop-opacity:0.42180094;"
         offset="0"
         id="stop1" /><stop
         style="stop-color:#000814;stop-opacity:0;"
         offset="0.73374128"
         id="stop2" /></linearGradient><linearGradient
       inkscape:collect="always"
       xlink:href="#linearGradient2"
       id="linearGradient1"
       gradientUnits="userSpaceOnUse"
       gradientTransform="translate(338.87416,1582.5099)"
       x1="-5373.8745"
       y1="1088.3361"
       x2="-5368.293"
       y2="1939.6174" /></defs><g
     id="g1"
     inkscape:groupmode="layer"
     inkscape:label="1"
     transform="matrix(0.26458333,0,0,0.26458334,1557.3965,-726.26169)"><path
       id="path108-3-0-4-7-0-5-8-7-2-9"
       style="mix-blend-mode:normal;fill:url(#linearGradient1)"
       inkscape:transform-center-x="-10.626853"
       inkscape:transform-center-y="2.2139277"
       d="m -5849.9657,2744.9259 c -13.8263,0 -22.2954,0.3676 -22.0899,0.957 0.1834,0.5258 12.4821,25.0392 27.3321,54.4746 14.8499,29.4355 27.225,53.529 27.5,53.541 0.275,0.012 5.3457,-9.6317 11.2675,-21.4296 l 10.7676,-21.4512 -16.1777,-33.0449 -16.1758,-33.0469 z m 80.6601,0.07 c -8.5282,0.077 -11.9179,0.3248 -11.9179,0.7598 0,0.6363 4.3822,9.9354 9.7382,20.664 l 9.7383,19.5059 h 35.5235 35.5234 l 9.793,-19.6133 c 5.3852,-10.7874 9.6147,-19.7875 9.4004,-20.0019 -0.2143,-0.2143 -24.9879,-0.6875 -55.0528,-1.0508 -20.5513,-0.2484 -34.218,-0.3412 -42.7461,-0.2637 z m 165.9492,0.9297 27.8165,54.9941 c 15.2988,30.2471 27.9039,55 28.0097,55 0.1059,0 5.1771,-9.7816 11.2696,-21.7441 l 11.0761,-21.75 -16.2226,-33.25 -16.2246,-33.25 h -22.8614 z m 291.9649,1.2305 -21.5566,0.2695 27.5019,54.3594 27.5,54.3574 10.8828,-21.3574 10.8848,-21.3594 -15.5977,-32 c -8.5776,-17.6 -16.1486,-32.571 -16.8261,-33.2695 -0.9375,-0.966 -6.3841,-1.2055 -22.7891,-1 z m -145.6289,0.012 -54.1133,0.2578 9.3828,19.2344 9.3828,19.2324 25.8223,0.3008 c 14.2023,0.1656 30.0973,0.2865 35.3223,0.2675 l 9.5,-0.035 9.8203,-19.3457 c 5.4008,-10.6409 9.6346,-19.5335 9.4082,-19.7598 -0.2264,-0.2259 -24.7631,-0.2946 -54.5254,-0.1523 z m 416.1445,0.5351 c -13.8263,0 -22.2953,0.3677 -22.0898,0.9571 7e-4,0 0.1025,0.2024 0.1035,0.205 0,0.012 -0.2053,0.013 -0.2012,0.025 0.187,0.5513 12.4898,25.0738 27.3399,54.4942 14.85,29.4202 27.2307,53.5016 27.5117,53.5156 0.25,0.012 4.9604,-9.0897 10.0078,-19.1094 0.6726,-1.3277 0.6347,-1.1439 1.3379,-2.5449 l 10.7676,-21.4512 -16.1778,-33.0449 -16.1757,-33.0469 z m 80.6602,0.07 c -8.5282,0.077 -11.918,0.3248 -11.918,0.7598 0,0.6363 4.3823,9.9355 9.7383,20.6641 l 9.7383,19.5058 h 35.5234 35.5235 l 9.7929,-19.6133 c 5.3852,-10.7873 9.6147,-19.7875 9.4004,-20.0019 -0.2143,-0.2143 -24.9879,-0.6875 -55.0527,-1.0508 -20.5513,-0.2484 -34.218,-0.3412 -42.7461,-0.2637 z m -226.5078,0.1524 c -29.9751,0 -54.5,0.2633 -54.5,0.584 0,0.3206 4.2452,9.3253 9.4336,20.0117 l 9.4336,19.4297 35.2089,-0.2617 35.211,-0.2637 9.8398,-19 c 5.4121,-10.45 9.8474,-19.3375 9.8574,-19.75 0.01,-0.4125 -24.5094,-0.75 -54.4843,-0.75 z m 392.457,0.7773 27.8164,54.9942 c 15.2989,30.247 27.904,55 28.0098,55 0.1059,0 5.177,-9.7817 11.2695,-21.7442 l 11.0762,-21.75 -16.2227,-33.25 -16.2246,-33.25 h -22.8613 z m 291.9649,1.2305 -21.5567,0.2695 27.502,54.3594 27.5,54.3574 10.8828,-21.3574 10.8847,-21.3594 -15.5976,-32 c -8.5776,-17.6 -16.1487,-32.571 -16.8262,-33.2695 -0.9375,-0.966 -6.3841,-1.2055 -22.789,-1 z m -145.629,0.012 -54.1132,0.2578 9.3828,19.2344 9.3828,19.2324 25.8223,0.3008 c 14.2022,0.1656 30.0972,0.2866 35.3222,0.2676 l 9.5,-0.035 9.8203,-19.3457 c 5.4008,-10.6409 9.6346,-19.5334 9.4082,-19.7597 -0.2264,-0.2259 -24.7631,-0.2947 -54.5254,-0.1524 z m 270.2969,0.7578 c -29.975,0 -54.5,0.2633 -54.5,0.584 0,0.3206 4.2452,9.3253 9.4336,20.0117 l 9.4336,19.4297 35.209,-0.2617 35.2109,-0.2637 9.8399,-19 c 5.4121,-10.45 9.8474,-19.3375 9.8574,-19.75 0.01,-0.4125 -24.5094,-0.75 -54.4844,-0.75 z m 145.5625,0.2305 c -14.5382,-0.1761 -22.1243,0.079 -21.9023,0.7344 0.187,0.5513 12.4897,25.0737 27.3398,54.4941 14.85,29.4203 27.2307,53.5016 27.5117,53.5156 0.2809,0.014 5.3393,-9.6459 11.2422,-21.4668 l 10.7325,-21.4921 -16.3418,-32.7579 -16.3418,-32.7578 z m -1405.1328,30.0176 c -0.4393,0.021 -58.893,115.2881 -59.8516,118.0234 -0.2043,0.5831 8.31,0.9512 22.0059,0.9512 h 22.3398 l 18.8575,-37.7344 18.8593,-37.7324 -10.8457,-21.7676 c -5.9659,-11.9713 -11.0803,-21.7542 -11.3652,-21.7402 z m 269.5957,1.2695 c -0.5037,0.1679 -14.323,26.8223 -30.7109,59.2305 -20.9073,41.3448 -29.4393,59.1499 -28.5996,59.6836 0.6581,0.4184 10.7572,0.7673 22.4433,0.7773 l 21.2481,0.014 19.1191,-38.2285 19.1191,-38.2305 -10.8515,-21.7754 c -5.9685,-11.9766 -11.264,-21.6386 -11.7676,-21.4707 z m 269.3125,1.4766 c -0.3467,0.4008 -13.9726,27.166 -30.2812,59.4785 l -29.6524,58.75 22.2539,-0.025 22.252,-0.023 18.9902,-37.4571 18.9902,-37.459 -10.9609,-21.9961 c -6.0289,-12.0976 -11.2453,-21.6683 -11.5918,-21.2675 z m 270.1816,0.031 c -0.4393,0.021 -58.8929,115.2882 -59.8515,118.0235 -0.2043,0.5831 8.31,0.9511 22.0058,0.9511 h 22.3399 l 18.8574,-37.7343 18.8594,-37.7325 -10.8457,-21.7675 c -5.9659,-11.9713 -11.0804,-21.7543 -11.3653,-21.7403 z m 269.5958,1.2715 c -0.5044,0.1693 -14.3234,26.8212 -30.711,59.2285 -20.9073,41.3449 -29.4393,59.1499 -28.5996,59.6836 0.6581,0.4184 10.7573,0.7674 22.4434,0.7774 l 21.248,0.016 19.1192,-38.2285 19.1191,-38.2305 -10.8516,-21.7754 c -5.9685,-11.9766 -11.2639,-21.6386 -11.7675,-21.4707 z m 269.3125,1.4746 c -0.3467,0.4008 -13.9726,27.1661 -30.2813,59.4785 l -29.6523,58.75 22.2539,-0.023 22.2519,-0.025 18.9903,-37.457 18.9902,-37.459 -10.9609,-21.9961 c -6.0289,-12.0977 -11.2453,-21.6684 -11.5918,-21.2676 z m -1445.2813,40.4531 h -22.2363 l -18.877,37.7051 -18.8789,37.7071 10.8496,21.7695 c 5.9671,11.9738 11.1337,21.4437 11.4805,21.043 0.3467,-0.4008 13.9649,-27.1661 30.2637,-59.4786 l 29.6347,-58.75 z m 247.4316,0.9981 -19.0722,37.5195 -19.0703,37.5195 11.2207,22.4668 11.2187,22.4668 29.7344,-59.2363 c 16.3537,-32.5797 29.7496,-59.5738 29.7676,-59.9863 0.018,-0.4125 -9.8288,-0.75 -21.8829,-0.75 z m 269.3731,0.498 -18.7422,37 c -10.3077,20.35 -18.7535,37.5424 -18.7695,38.2051 -0.016,0.6628 4.767,11.1253 10.6289,23.25 5.8619,12.1248 10.9244,22.0393 11.25,22.0293 0.747,-0.018 60.4759,-118.9469 59.9668,-119.4023 -0.2064,-0.1846 -10.2647,-0.5039 -22.3535,-0.709 z m 292.2851,1.2813 h -22.2363 l -18.8769,37.7051 -18.8789,37.707 10.8496,21.7695 c 5.9671,11.9738 11.1336,21.4438 11.4804,21.043 0.3467,-0.4008 13.9649,-27.1661 30.2637,-59.4785 l 29.6348,-58.75 z m 247.4317,0.998 -19.0723,37.5196 -19.0703,37.5195 11.2207,22.4668 11.2188,22.4668 29.7343,-59.2363 c 16.3537,-32.5797 29.7496,-59.5739 29.7676,-59.9864 0.018,-0.4125 -9.8287,-0.75 -21.8828,-0.75 z m 269.373,0.4981 -18.7422,37 c -10.3076,20.35 -18.7535,37.5424 -18.7695,38.2051 -0.016,0.6628 4.767,11.1253 10.6289,23.25 5.8619,12.1247 10.9244,22.0392 11.25,22.0292 0.747,-0.018 60.4759,-118.9469 59.9668,-119.4023 -0.2064,-0.1846 -10.2646,-0.5039 -22.3535,-0.709 z m -1453.6484,39.7363 c -0.2849,-0.01 -5.4527,9.8928 -11.4844,21.9961 l -10.9668,22.0059 16.4727,32.9941 16.4726,32.9941 h 22.5781 22.5762 l -27.5644,-54.9902 c -15.1611,-30.2451 -27.799,-55 -28.084,-55 z m 809.0898,2.7773 c -0.058,0 -1.9118,3.7277 -2.3418,4.4844 -1.4378,2.3741 -4.1046,7.5815 -7.6269,14.6074 -0.757,1.5035 -0.7193,1.3064 -1.5156,2.9043 l -10.9668,22.0059 0.01,0.022 -0.1,0.2012 16.4727,32.9941 16.4726,32.9941 h 22.7832 22.7852 l -3.2481,-6.0566 -24.6406,-49.1563 c -15.1611,-30.245 -27.799,-55 -28.084,-55 z m -538.9433,0.033 c -0.3454,-0.3731 -5.5456,8.8972 -11.5567,20.6016 l -10.9297,21.2813 16.3614,33.1484 16.3593,33.1465 h 22.3965 22.3965 l -27.1992,-53.75 c -14.9599,-29.5625 -27.4828,-54.0547 -27.8281,-54.4278 z m 269.1621,0.7715 c -0.4352,0.052 -5.6405,9.5909 -11.5684,21.1993 l -10.7773,21.1074 16.5293,33.0508 16.5312,33.0488 h 22.4766 22.4766 l -27.4375,-54.25 c -15.0907,-29.8375 -27.7952,-54.2083 -28.2305,-54.1563 z m 539.9277,2.0059 c -0.3454,-0.3731 -5.5455,8.8972 -11.5566,20.6016 l -10.9297,21.2812 16.3613,33.1484 16.3594,33.1465 h 22.3965 22.3965 l -27.1993,-53.75 c -14.9598,-29.5624 -27.4828,-54.0546 -27.8281,-54.4277 z m 269.1621,0.7715 c -0.4352,0.052 -5.6404,9.5908 -11.5683,21.1992 l -10.7774,21.1074 16.5293,33.0508 16.5313,33.0488 h 22.4765 22.4766 l -27.4375,-54.25 c -15.0907,-29.8374 -27.7952,-54.2082 -28.2305,-54.1562 z m 270.0469,0.7519 c -1.1805,-0.3388 -3.3292,3.5825 -11.8281,20.6367 l -10.9785,22.0313 16.4726,32.9941 16.4727,32.9942 h 22.7832 22.7851 l -3.8886,-7.25 c -2.1385,-3.9875 -14.2733,-27.95 -26.9668,-53.25 -12.6936,-25.2999 -23.6701,-46.7988 -24.3906,-47.7754 -0.1448,-0.1963 -0.2923,-0.3325 -0.461,-0.3809 z m -1474.9512,62.8789 -9.7383,19.5059 c -5.356,10.7286 -9.7382,19.7179 -9.7382,19.9766 0,0.2587 7.9875,0.6058 17.75,0.7695 35.1734,0.5899 92.25,0.7371 92.25,0.2383 0,-0.2802 -4.5014,-9.5052 -10.0039,-20.5 l -10.0059,-19.9903 h -35.2559 z m 270.3203,1.625 c -0.8154,0.5039 -19.7968,37.7665 -19.7968,38.8633 0,0.2805 24.5251,0.5098 54.5,0.5098 29.9749,0 54.5,-0.2293 54.5,-0.5098 0,-0.2805 -4.2406,-8.9819 -9.4239,-19.3379 l -9.4238,-18.8301 -34.7441,-0.6152 c -19.1093,-0.3387 -35.1346,-0.375 -35.6114,-0.08 z m 269.2266,0.3477 -10.0098,20.0019 -10.0097,20 37.748,0.2735 c 20.7618,0.151 45.5106,0.383 54.9981,0.5137 9.4875,0.1306 17.2129,-0.1012 17.1679,-0.5137 -0.045,-0.4125 -4.4326,-9.525 -9.75,-20.25 l -9.6679,-19.5 -35.2383,-0.2617 z m 269.543,0.8047 -9.7383,19.5058 c -5.356,10.7286 -9.7383,19.7179 -9.7383,19.9766 0,0.2587 7.9875,0.6058 17.75,0.7695 35.1735,0.5899 92.25,0.7371 92.25,0.2383 0,-0.2802 -4.5013,-9.5052 -10.0039,-20.5 l -10.0059,-19.9902 h -35.2558 z m 270.3203,1.625 c -0.8154,0.5039 -19.7969,37.7665 -19.7969,38.8633 0,0.2805 24.5251,0.5097 54.5,0.5097 29.975,0 54.5,-0.2292 54.5,-0.5097 0,-0.2805 -4.2405,-8.9819 -9.4238,-19.3379 l -9.4238,-18.8301 -34.7442,-0.6152 c -19.1093,-0.3387 -35.1345,-0.375 -35.6113,-0.08 z m 269.2266,0.3476 -10.0098,20.002 -10.0098,20 37.7481,0.2734 c 20.7618,0.151 45.5105,0.383 54.998,0.5137 9.4875,0.1306 17.213,-0.1012 17.168,-0.5137 -0.045,-0.4125 -4.4326,-9.525 -9.75,-20.25 l -9.668,-19.5 -35.2383,-0.2617 z m -1503.2735,69.2481 27.3301,53.9961 c 15.0316,29.697 27.555,53.9904 27.8301,53.9804 0.275,-0.01 5.3019,-9.4675 11.1699,-21.0214 l 10.668,-21.0079 -16.1055,-32.9726 -16.1074,-32.9746 h -22.3926 z m 124.0078,0.1504 c -18.2149,-0.081 -32.8476,0.017 -32.8476,0.3437 0,0.2714 4.3848,9.2763 9.7441,20.0117 l 9.7441,19.5196 35.5039,-0.2617 35.504,-0.2637 9.6894,-19 9.6895,-19 -22.6875,-0.6192 c -14.3273,-0.3907 -36.125,-0.6494 -54.3399,-0.7304 z m 145.002,0.8515 11.9629,23.25 c 6.5799,12.7875 18.9897,37.3125 27.5781,54.5 8.5883,17.1875 15.9563,31.25 16.373,31.25 0.4167,0 5.5997,-9.6977 11.5176,-21.5488 l 10.7598,-21.5469 -16.1836,-32.9531 -16.1856,-32.9512 h -22.9121 z m 146.2812,0.4453 c -27.1108,-0.2436 -54.1308,-0.3068 -54.1308,0.053 0,0.4373 4.2453,9.5045 9.4336,20.1484 l 9.4336,19.3516 h 35.5625 35.5605 l 9.5645,-19.1074 c 5.2601,-10.5092 9.4238,-19.2454 9.2539,-19.4141 -0.3652,-0.3627 -27.5669,-0.7876 -54.6778,-1.0313 z m 123.7129,0.5528 16.4688,32.25 c 9.0587,17.7375 21.5114,42.3418 27.6718,54.6758 l 11.2012,22.4257 10.9082,-21.3496 c 5.9994,-11.7423 10.9063,-21.6767 10.9063,-22.0761 0,-0.3994 -7.2593,-15.3964 -16.1328,-33.3262 l -16.1348,-32.5996 h -22.4453 z m 146.1563,0 c -30.25,0 -55,0.2292 -55,0.5097 0,1.2901 19.3733,39.0766 20.3711,39.7325 0.6208,0.408 16.6539,0.6331 35.6289,0.5 l 34.5,-0.2422 9.705,-19 c 5.3372,-10.45 9.725,-19.5625 9.75,-20.25 0.036,-0.9854 -11.5973,-1.25 -54.955,-1.25 z m 123.9297,0.7773 0.4804,0.9512 c 0,0.01 -0.2398,0.012 -0.2363,0.02 0.187,0.4125 12.4877,24.9365 27.334,54.4981 14.8463,29.5614 27.2229,53.7491 27.5039,53.75 0.2809,8e-4 5.3244,-9.6415 11.209,-21.4258 l 10.6992,-21.4258 -0.1016,-0.2051 0.1094,-0.2148 -16.1055,-32.9727 -16.1074,-32.9746 h -22.3926 z m 124.0078,0.1504 c -18.2149,-0.081 -32.8477,0.017 -32.8477,0.3438 0,0.04 1.2473,2.5331 1.4238,2.9238 -0.7955,-1.4253 -1.3393,-2.1532 -1.4296,-1.9316 -0.097,0.2379 0.2404,1.3528 1.0781,3.1914 0.6394,1.4032 1.3514,2.3654 1.5801,2.1367 0.2107,-0.2107 -0.3072,-1.5802 -1.0352,-2.9981 1.1358,2.4837 3.6573,7.7362 8.127,16.6895 l 9.7441,19.5195 35.5039,-0.2617 35.5039,-0.2637 9.6895,-19 9.6894,-19 -22.6875,-0.6191 c -14.3273,-0.3907 -36.1249,-0.6495 -54.3398,-0.7305 z m 145.0019,0.8516 11.9629,23.25 c 6.5799,12.7875 18.9897,37.3125 27.5781,54.5 8.5883,17.1875 15.9564,31.25 16.3731,31.25 0.4167,0 5.5997,-9.6978 11.5176,-21.5489 l 10.7597,-21.5468 -16.1836,-32.9532 -16.1855,-32.9511 h -22.9121 z m 146.2813,0.4453 c -27.1109,-0.2436 -54.1309,-0.3049 -54.1309,0.055 0,0.4373 4.2453,9.5026 9.4336,20.1465 l 9.4336,19.3535 h 35.5625 35.5606 l 9.5644,-19.1074 c 5.2602,-10.5092 9.4238,-19.2474 9.2539,-19.4161 -0.3652,-0.3627 -27.5669,-0.7875 -54.6777,-1.0312 z m 123.7129,0.5527 16.4687,32.25 c 9.0587,17.7375 21.5115,42.3418 27.6719,54.6758 l 11.2012,22.4258 10.9082,-21.3496 c 5.9994,-11.7423 10.9062,-21.6768 10.9062,-22.0762 0,-0.3994 -7.2592,-15.3964 -16.1328,-33.3262 l -16.1348,-32.5996 h -22.4453 z m 146.1562,0 c -30.2499,0 -55,0.2293 -55,0.5098 0,1.2901 19.3733,39.0765 20.3711,39.7324 0.6208,0.408 16.6539,0.6331 35.6289,0.5 l 34.5,-0.2422 9.7051,-19 c 5.3372,-10.45 9.725,-19.5625 9.75,-20.25 0.036,-0.9854 -11.5973,-1.25 -54.9551,-1.25 z m 146.168,1.0156 c -12.2833,-0.01 -22.1812,0.32 -21.9941,0.7325 0.187,0.4125 12.4877,24.9364 27.3339,54.498 14.8463,29.5615 27.2229,53.7491 27.5039,53.75 0.2809,8e-4 5.3244,-9.6415 11.209,-21.4258 l 10.6992,-21.4257 -16.2089,-33.0567 -16.211,-33.0566 z m 68.916,1.2481 c -0.097,0.2379 0.2404,1.3528 1.0781,3.1914 0.6394,1.4032 1.3514,2.3654 1.5801,2.1367 0.2287,-0.2287 -0.277,-1.6928 -1.123,-3.2539 -0.9059,-1.6715 -1.4382,-2.3121 -1.5352,-2.0742 z m -1474.1543,28.9707 c -0.5614,0.015 -60.0195,117.2717 -60.0195,118.3633 0,0.3637 9.9456,0.5406 22.0996,0.3926 l 22.0976,-0.2696 19.0586,-37.3984 19.0606,-37.3965 -10.8907,-21.8535 c -5.9894,-12.0184 -11.1214,-21.8479 -11.4062,-21.8379 z m 269.4883,1.1465 c -1.5315,1.5313 -59.3555,117.2772 -58.9317,117.9629 0.2985,0.4831 10.1181,0.8769 21.8223,0.8769 h 21.2813 l 18.6601,-36.8672 c 10.2635,-20.2775 18.6602,-37.6074 18.6602,-38.5097 0,-1.8146 -20.8918,-44.0634 -21.4922,-43.4629 z m 269.4433,0.4961 c -0.9836,0.9913 -59.9511,117.7411 -59.9511,118.6972 0,0.3566 10.1244,0.6485 22.498,0.6485 h 22.4981 l 18.8418,-37.75 18.8437,-37.75 -10.9453,-22.3457 c -6.0202,-12.2895 -11.3244,-21.9645 -11.7852,-21.5 z m 270.1582,1.1347 c -0.5614,0.015 -60.0195,117.2717 -60.0195,118.3633 0,0.3637 9.9456,0.5406 22.0996,0.3926 l 22.0977,-0.2695 19.0586,-37.3985 19.0605,-37.3965 -10.8906,-21.8535 c -5.9894,-12.0184 -11.1215,-21.8479 -11.4063,-21.8379 z m 269.4883,1.1465 c -1.5315,1.5313 -59.3554,117.2772 -58.9316,117.9629 0.2985,0.4831 10.1181,0.877 21.8223,0.877 h 21.2812 l 18.6602,-36.8672 c 10.2635,-20.2776 18.6601,-37.6075 18.6601,-38.5098 0,-1.8146 -20.8918,-44.0634 -21.4922,-43.4629 z m 269.4434,0.4961 c -0.9836,0.9913 -59.9512,117.7412 -59.9512,118.6973 0,0.3566 10.1245,0.6484 22.4981,0.6484 h 22.498 l 18.8418,-37.75 18.8438,-37.75 -10.9453,-22.3457 c -6.0202,-12.2895 -11.3244,-21.9645 -11.7852,-21.5 z m -1467.6563,40.5684 -19.2265,37.9219 -19.2286,37.9238 11.25,22.5273 c 6.188,12.3906 11.3707,22.4085 11.5176,22.2617 0.7388,-0.7388 60.3028,-119.0564 60.3028,-119.7851 0,-0.4679 -10.0376,-0.8496 -22.3067,-0.8496 z m 291.5723,2.2304 -22.043,0.2676 -18.8808,37.1719 -18.8809,37.1719 10.9844,22.2968 10.9824,22.2969 29.9414,-59.2871 c 16.4672,-32.6083 29.9395,-59.491 29.9395,-59.7383 0,-0.2474 -9.9191,-0.3277 -22.043,-0.1797 z m 517.5176,0.5469 -19.2266,37.9219 -19.2285,37.9238 11.25,22.5274 c 6.188,12.3906 11.3707,22.4085 11.5176,22.2617 0.7388,-0.7388 60.3027,-119.0565 60.3027,-119.7852 0,-0.4679 -10.0375,-0.8496 -22.3066,-0.8496 z m -225.4356,0.1836 -22.2695,0.2695 -22.2695,0.2676 -18.7715,37 -18.7715,37 10.7402,22.3106 c 9.6304,20.0043 10.8831,22.1234 12.1016,20.5 0.7474,-0.9958 14.3811,-27.8052 30.2988,-59.5782 z m 517.0078,2.0469 -22.0429,0.2676 -18.8809,37.1718 -18.8808,37.1719 10.9843,22.2969 10.9825,22.2969 29.9414,-59.2871 c 16.4671,-32.6083 29.9394,-59.491 29.9394,-59.7383 0,-0.2474 -9.9191,-0.3277 -22.043,-0.1797 z m 292.0821,0.7305 -22.2695,0.2695 -22.2696,0.2676 -18.7715,37 -18.7714,37 10.7402,22.3105 c 9.6304,20.0044 10.883,22.1234 12.1015,20.5 0.7474,-0.9958 14.3812,-27.8051 30.2989,-59.5781 z m -1498.1387,40.2812 c -0.281,-0.011 -5.2904,9.5482 -11.1309,21.2441 l -10.6191,21.2657 16.041,32.7343 16.041,32.7344 h 22.3985 22.3984 l -27.3086,-53.9785 c -15.0202,-29.6891 -27.5393,-53.989 -27.8203,-54 z m 269.9687,0.5996 c -0.4502,-0.4842 -5.7453,8.9635 -11.7656,20.9942 l -10.9453,21.873 16.6191,33.2578 16.6192,33.2559 h 22.2578 c 12.2413,0 22.2559,-0.2964 22.2559,-0.6582 0,-0.9111 -54.0284,-107.6334 -55.0411,-108.7227 z m 269.2266,0.027 -10.9375,21.8554 -10.9355,21.8555 16.0078,32.7715 16.0058,32.7715 4.0879,0.373 c 2.2477,0.2062 12.2984,0.4548 22.336,0.5508 14.0402,0.1344 18.2437,-0.1146 18.2207,-1.0762 -0.017,-0.6875 -12.3507,-25.5167 -27.4082,-55.1758 z m 269.8945,2.1504 c -0.049,0 -1.6156,3.146 -1.9277,3.6796 -1.4604,2.4425 -4.5179,8.0139 -9.5273,17.793 l -10.8731,21.2285 16.3672,32.75 16.3672,32.75 h 22.3379 22.3359 l -0.1133,-0.2226 h 0.1622 l -27.3086,-53.9786 c -15.0202,-29.689 -27.5394,-53.9889 -27.8204,-53.9999 z m 269.9688,0.5996 c -0.4502,-0.4842 -5.7453,8.9634 -11.7656,20.9941 l -10.9453,21.873 16.6191,33.2579 16.6191,33.2558 h 22.2579 c 12.2412,0 22.2558,-0.2964 22.2558,-0.6582 0,-0.9111 -54.0283,-107.6333 -55.041,-108.7226 z m 269.2266,0.027 -10.9375,21.8555 -10.9356,21.8554 16.0078,32.7715 16.0059,32.7715 4.0879,0.3731 c 2.2477,0.2062 12.2983,0.4547 22.3359,0.5507 14.0402,0.1344 18.2437,-0.1145 18.2207,-1.0761 -0.017,-0.6875 -12.3507,-25.5167 -27.4082,-55.1758 z m 269.8144,2.3789 c -0.2749,0.01 -5.3939,9.5684 -11.375,21.2442 l -10.873,21.2285 16.3672,32.75 16.3672,32.75 h 22.3378 22.336 l -27.3301,-53.9942 c -15.0315,-29.697 -27.555,-53.9885 -27.8301,-53.9785 z m -1404.1113,63.1699 -35.2403,0.2637 -35.2382,0.2617 -9.7032,19 c -5.3371,10.45 -9.725,19.3375 -9.75,19.75 -0.025,0.4125 24.4783,0.75 54.4532,0.75 36.0263,0 54.5,-0.3421 54.5,-1.0097 0,-0.5555 -4.2804,-9.5603 -9.5118,-20.0118 z m 199.5215,0.5274 -10.1446,20 -10.1465,20 45.6465,0.5156 c 25.1052,0.2834 49.7328,0.6209 54.7285,0.75 4.9958,0.1292 9.3595,-0.043 9.6973,-0.3809 0.3378,-0.3378 -3.8641,-9.5628 -9.3379,-20.5 l -9.9531,-19.8847 -30.4941,-0.209 c -16.7724,-0.1146 -32.6336,-0.227 -35.2461,-0.25 z m 269.5097,1.498 -10.0097,20 -10.0098,20 h 55.0195 55.0176 l -1.375,-3.25 c -0.7561,-1.7875 -5.1439,-10.7875 -9.75,-20 l -8.373,-16.75 h -35.2598 z m 340.0586,0.752 -35.2402,0.2636 -35.2383,0.2618 -9.7031,19 c -5.3371,10.45 -9.725,19.3375 -9.75,19.75 -0.025,0.4125 24.4782,0.75 54.4531,0.75 36.0264,0 54.5,-0.3422 54.5,-1.0098 0,-0.5555 -4.2803,-9.5602 -9.5117,-20.0117 z m 199.5215,0.5273 -10.1445,20 -10.1465,20 45.6465,0.5156 c 25.1052,0.2834 49.7327,0.6209 54.7285,0.75 4.9958,0.1292 9.3595,-0.043 9.6973,-0.3808 0.3378,-0.3378 -3.8641,-9.5628 -9.3379,-20.5 l -9.9531,-19.8848 -30.4942,-0.209 c -16.7724,-0.1146 -32.6336,-0.227 -35.2461,-0.25 z m 269.5098,1.4981 -10.0098,20 -10.0097,20 h 55.0195 55.0176 l -1.375,-3.25 c -0.7561,-1.7875 -5.1439,-10.7875 -9.75,-20 l -8.3731,-16.75 h -35.2597 z m -1357.4805,69.0332 c -27.3538,-0.048 -54.6192,0.08 -54.6191,0.4336 3e-4,0.4089 4.3822,9.5214 9.7382,20.25 l 9.7383,19.5078 h 35.5235 35.5234 l 9.793,-19.6133 c 5.3853,-10.7873 9.6391,-19.7652 9.4531,-19.9512 -0.354,-0.354 -27.7966,-0.5791 -55.1504,-0.6269 z m -145.7793,0.1894 27.3301,53.9961 c 15.0316,29.6971 27.5551,53.9924 27.8301,53.9824 0.275,-0.01 5.3712,-9.6115 11.3242,-21.3437 l 10.8242,-21.332 -16.3164,-32.6504 -16.3164,-32.6524 h -22.3379 z m 269.1563,0 27.5703,55.1309 c 15.1633,30.3226 27.9233,54.7352 28.3554,54.25 0.4323,-0.4852 5.6325,-10.3378 11.5547,-21.8946 l 10.7676,-21.0117 -16.625,-33.2383 -16.625,-33.2363 h -22.498 z m 135.957,1.0176 c -22.7902,-0.037 -43.9531,0.1101 -43.9531,0.4746 0,0.2714 4.3822,9.2714 9.7382,20 l 9.7383,19.5059 h 35.0235 35.0234 l 9.6621,-19.3516 9.6602,-19.3516 -11.1719,-0.6425 c -6.5113,-0.3753 -30.9304,-0.5976 -53.7207,-0.6348 z m 156.8086,0.9805 c -11.9692,0 -21.7617,0.229 -21.7617,0.5078 0,0.7488 26.252,53.1682 41.1875,82.2422 7.134,13.8875 13.1597,25.25 13.3886,25.25 0.2288,0 5.1968,-9.5542 11.0411,-21.2325 l 10.6269,-21.2343 -16.3594,-32.7657 -16.3593,-32.7675 z m 68.2285,0 10.0098,20 10.0097,20 h 35.2578 35.2559 l 9.6816,-19.3907 c 5.3242,-10.6648 9.4053,-19.665 9.0704,-20 -0.3349,-0.3349 -25.0613,-0.6093 -54.9473,-0.6093 z m 324.7188,0.5898 c -27.3538,-0.048 -54.6193,0.08 -54.6192,0.4336 3e-4,0.4089 4.3823,9.5214 9.7383,20.25 l 9.7383,19.5078 h 35.5234 35.5235 l 9.7929,-19.6133 c 5.3853,-10.7873 9.6391,-19.7651 9.4531,-19.9511 -0.354,-0.354 -27.7966,-0.5792 -55.1503,-0.627 z m -145.7793,0.1895 0.1113,0.2207 h -0.037 l 27.2441,54.5 c 14.9845,29.9748 27.3567,54.5 27.4942,54.5 0.099,0 4.2997,-8.3378 7.9628,-15.5957 1.6266,-3.1233 1.7594,-3.1478 3.709,-6.9903 l 10.8243,-21.332 -16.3165,-32.6504 -16.3164,-32.6523 h -22.3379 z m 269.1562,0 27.5703,55.1308 c 15.1633,30.3227 27.9234,54.7352 28.3555,54.25 0.4323,-0.4852 5.6325,-10.3377 11.5547,-21.8945 l 10.7676,-21.0117 -16.625,-33.2383 -16.625,-33.2363 h -22.4981 z m 135.957,1.0175 c -22.7901,-0.037 -43.9531,0.1102 -43.9531,0.4747 0,0.2714 4.3823,9.2714 9.7383,20 l 9.7383,19.5058 h 35.0234 35.0235 l 9.6621,-19.3516 9.6601,-19.3515 -11.1719,-0.6426 c -6.5112,-0.3753 -30.9304,-0.5976 -53.7207,-0.6348 z m 156.8086,0.9805 c -11.9691,0 -21.7617,0.229 -21.7617,0.5078 0,0.7488 26.252,53.1682 41.1875,82.2422 7.134,13.8875 13.1598,25.25 13.3887,25.25 0.2288,0 5.1967,-9.5541 11.041,-21.2324 l 10.627,-21.2344 -16.3594,-32.7656 -16.3594,-32.7676 z m 68.2286,0 10.0097,20 10.0098,20 h 35.2578 35.2559 l 9.6816,-19.3906 c 5.3242,-10.6649 9.4052,-19.665 9.0703,-20 -0.3349,-0.3349 -25.0613,-0.6094 -54.9473,-0.6094 z m 179.0136,1 27.2442,54.5 c 14.9845,29.9749 27.3566,54.5 27.4941,54.5 0.1374,0 5.1351,-9.7875 11.1055,-21.75 l 10.8554,-21.75 -16.0234,-32.75 -16.0234,-32.75 h -22.3262 z m -1382.8008,28.875 -3.5156,6.4238 c -3.8862,7.0991 -56.7732,111.9343 -56.7754,112.543 0,0.2082 10.0117,0.377 22.2481,0.377 h 22.25 l 18.7226,-37.3965 18.7246,-37.3965 -10.8261,-22.2754 z m 269.3672,1.6387 c -0.8317,0.2681 -60.5937,117.5128 -60.6367,118.9609 -0.012,0.4125 10.077,0.75 22.4219,0.75 h 22.4453 l 19.0703,-37.75 19.0684,-37.75 -10.7637,-22.2422 c -5.9204,-12.2324 -11.1429,-22.1178 -11.6055,-21.9687 z m 539.7227,1.1387 -3.5156,6.4238 c -3.8862,7.0991 -56.7732,111.9342 -56.7754,112.5429 0,0.2082 10.0116,0.377 22.248,0.377 h 22.25 l 18.7227,-37.3965 18.7246,-37.3965 -10.8262,-22.2754 z m -269.4375,1.2265 c -0.8748,-1.0071 -6.1771,9.0215 -37.3242,70.5938 l -23.6485,46.75 h 22.4375 22.4375 l 18.6856,-37.1426 18.6836,-37.1426 -10.2696,-21.1074 c -5.6481,-11.6089 -10.5987,-21.4868 -11.0019,-21.9512 z m 538.8047,0.4121 c -0.8317,0.2681 -60.5937,117.5129 -60.6367,118.961 -0.012,0.4125 10.0769,0.75 22.4218,0.75 h 22.4453 l 19.0704,-37.75 19.0683,-37.75 -10.7637,-22.2422 c -5.9204,-12.2324 -11.1428,-22.1179 -11.6054,-21.9688 z m 270.2851,2.3653 c -0.8748,-1.0071 -6.177,9.0215 -37.3242,70.5937 l -23.6484,46.75 h 22.4375 22.4375 l 18.6855,-37.1426 18.6836,-37.1425 -10.2695,-21.1075 c -5.6481,-11.6089 -10.5988,-21.4867 -11.002,-21.9511 z m -1446.7851,39.7968 -21.75,0.2696 -18.9141,37.5761 -18.916,37.5762 10.834,22.1719 c 5.9588,12.1947 10.9247,22.0601 11.0351,21.9238 1.1474,-1.4164 59.461,-117.7351 59.461,-118.6074 0,-0.8764 -5.5739,-1.1107 -21.75,-0.9102 z m 247.8984,0.7696 -19.1582,37.75 -19.1602,37.75 11.17,22.4238 11.1679,22.4238 29.916,-59.2637 c 16.454,-32.5949 29.9161,-59.6733 29.9161,-60.1738 0,-0.5192 -9.4186,-0.9101 -21.9258,-0.9101 z m 291.6016,1.0058 h -22.25 l -19.1621,37.7461 -19.1622,37.7461 11.1524,22.25 c 6.1333,12.2375 11.3813,22.2386 11.6621,22.2266 0.6018,-0.027 60.0672,-118.1264 60.0332,-119.2266 -0.013,-0.4125 -10.0358,-0.7461 -22.2734,-0.7461 z m 269.5898,1.002 -21.75,0.2695 -18.914,37.5762 -18.9161,37.5761 10.834,22.1719 c 5.9588,12.1947 10.9248,22.0602 11.0352,21.9239 1.1474,-1.4164 59.4609,-117.7352 59.4609,-118.6075 0,-0.8764 -5.5738,-1.1106 -21.75,-0.9101 z m 247.8985,0.7695 -19.1582,37.75 -19.1602,37.75 11.1699,22.4238 11.168,22.4239 29.916,-59.2637 c 16.454,-32.595 29.916,-59.6733 29.916,-60.1738 0,-0.5192 -9.4186,-0.9102 -21.9258,-0.9102 z m 291.6015,1.0059 h -22.25 l -19.1621,37.7461 -19.1621,37.7461 11.1523,22.25 c 6.1333,12.2374 11.3814,22.2385 11.6622,22.2265 0.6018,-0.027 60.0672,-118.1263 60.0332,-119.2265 -0.013,-0.4125 -10.0359,-0.7461 -22.2735,-0.7461 z m -1476.041,40.2226 c -0.7949,-0.01 -21.7988,41.3437 -21.7988,42.9141 0,0.5593 7.2956,15.6561 16.2128,33.5488 l 16.2149,32.5332 h 22.2851 c 12.2577,0 22.2872,-0.2963 22.2872,-0.6582 0,-1.3278 -54.5222,-108.3379 -55.2012,-108.3379 z m 539.4668,1.8106 -11.1426,21.5781 -11.1406,21.5801 16.5117,33.0136 16.5117,33.0118 h 21.9981 c 12.0984,0 21.9961,-0.2277 21.9961,-0.5059 0,-0.6548 -30.7562,-62.0069 -44.2832,-88.3359 z m -269.0996,0.8047 c -1.1388,0.037 -3.7891,4.7151 -11.6192,20.0859 l -10.9355,21.4668 16.4316,32.9141 16.4336,32.9121 h 22.2461 22.2461 l -26.6523,-52.75 c -14.659,-29.0125 -27.1438,-53.4827 -27.7442,-54.3789 -0.1117,-0.1667 -0.2435,-0.2553 -0.4062,-0.25 z m 538.7226,0.1621 c 0,-10e-5 -0.123,0.2356 -0.1289,0.2382 0,0 0,-0.01 0,-0.01 -0.2263,0 -3.8915,7.1734 -6.5664,12.2539 -1.8709,3.5549 -2.3766,4.2083 -4.5527,8.4942 -5.366,10.5601 -10.6367,21.3127 -10.6367,22.0801 0,0.4719 7.2226,15.5498 16.0488,33.5078 l 16.0469,32.6523 h 22.4531 c 12.3489,0 22.4512,-0.2908 22.4512,-0.6465 0,0 -0.1128,-0.2247 -0.1133,-0.2285 0,0 0.2031,0 0.2031,-0.01 0,-1.3278 -54.5222,-108.3379 -55.2012,-108.3379 z m 539.4668,1.8105 -11.1425,21.5781 -11.1407,21.5801 16.5118,33.0137 16.5117,33.0117 h 21.998 c 12.0984,0 21.9961,-0.2277 21.9961,-0.5059 0,-0.6548 -30.7561,-62.0068 -44.2832,-88.3359 z m -269.0996,0.8047 c -1.1388,0.037 -3.789,4.7152 -11.6191,20.0859 l -10.9356,21.4668 16.4317,32.9141 16.4336,32.9121 h 22.2461 22.2461 l -26.6524,-52.75 c -14.659,-29.0125 -27.1437,-53.4827 -27.7441,-54.3789 -0.1117,-0.1667 -0.2436,-0.2553 -0.4063,-0.25 z m 538.5899,0.3926 c -0.7698,-0.013 -21.7559,41.2998 -21.7559,42.8281 0,0.4719 7.2227,15.5498 16.0489,33.5078 l 16.0468,32.6524 h 22.4532 c 12.3488,0 22.4511,-0.2908 22.4511,-0.6465 0,-1.3709 -54.5391,-108.3298 -55.2441,-108.3418 z m -1474.3692,63.2109 -9.7383,19.5059 c -5.3559,10.7285 -9.7382,19.9536 -9.7382,20.5 0,0.6458 19.2445,0.9941 55,0.9941 30.2499,0 55,-0.2295 55,-0.5098 0,-0.2802 -4.5014,-9.5054 -10.0039,-20.5 l -10.0059,-19.9902 h -35.2559 z m 539.6465,1.7735 -10.0566,20.0937 -10.0567,20.0957 23.7442,0.2871 c 51.5107,0.6227 86.2461,0.7259 86.2461,0.2559 0,-0.2714 -4.3824,-9.2715 -9.7383,-20 l -9.7383,-19.5078 h -32.1367 c -17.6752,0 -33.5142,-0.2744 -35.1992,-0.6114 z m -270.1133,0.2246 -9.5039,18.9902 c -5.2279,10.4444 -9.5058,19.2167 -9.5058,19.4922 0,0.2756 23.5124,0.6288 52.25,0.7851 61.8562,0.3365 56.2942,0.414 56.0664,-0.791 -0.1016,-0.5369 -4.2655,-9.4141 -9.2539,-19.7265 l -9.0703,-18.75 h -35.4903 z m 539.5567,0.7793 -9.7383,19.5058 c -5.3559,10.7285 -9.7383,19.9536 -9.7383,20.5 0,0.6458 19.2446,0.9942 55,0.9942 30.25,0 55,-0.2295 55,-0.5098 0,-0.2802 -4.5013,-9.5054 -10.0039,-20.5 l -10.0059,-19.9902 h -35.2558 z m 539.6465,1.7734 -10.0567,20.0937 -10.0566,20.0957 23.7441,0.2872 c 51.5108,0.6227 86.2461,0.7258 86.2461,0.2558 0,-0.2714 -4.3824,-9.2715 -9.7383,-20 l -9.7382,-19.5078 h -32.1368 c -17.6751,0 -33.5142,-0.2743 -35.1992,-0.6113 z m -270.1133,0.2246 -9.5039,18.9902 c -5.2279,10.4444 -9.5059,19.2167 -9.5059,19.4922 0,0.2756 23.5124,0.6289 52.25,0.7852 61.8563,0.3365 56.2942,0.414 56.0664,-0.791 -0.1016,-0.5369 -4.2655,-9.4142 -9.2539,-19.7266 l -9.0703,-18.75 h -35.4902 z"
       inkscape:export-filename="pattern_big.svg"
       inkscape:export-xdpi="300"
       inkscape:export-ydpi="300" /></g></svg>
