<?xml version="1.0" encoding="UTF-8" standalone="no"?>
<!-- Created with Inkscape (http://www.inkscape.org/) -->

<svg
   width="242.30464mm"
   height="205.84526mm"
   viewBox="0 0 242.30464 205.84526"
   version="1.1"
   id="svg1"
   xml:space="preserve"
   xmlns:inkscape="http://www.inkscape.org/namespaces/inkscape"
   xmlns:sodipodi="http://sodipodi.sourceforge.net/DTD/sodipodi-0.dtd"
   xmlns:xlink="http://www.w3.org/1999/xlink"
   xmlns="http://www.w3.org/2000/svg"
   xmlns:svg="http://www.w3.org/2000/svg"><sodipodi:namedview
     id="namedview1"
     pagecolor="#ffffff"
     bordercolor="#000000"
     borderopacity="0.25"
     inkscape:showpageshadow="2"
     inkscape:pageopacity="0.0"
     inkscape:pagecheckerboard="0"
     inkscape:deskcolor="#d1d1d1"
     inkscape:document-units="mm"><inkscape:page
       x="-4.3396496e-05"
       y="5.6283038e-06"
       width="242.30466"
       height="205.84526"
       id="page3"
       margin="0"
       bleed="0" /></sodipodi:namedview><defs
     id="defs1"><linearGradient
       id="linearGradient157"
       inkscape:collect="always"><stop
         style="stop-color:#d6a300;stop-opacity:0.61137438;"
         offset="0"
         id="stop157" /><stop
         style="stop-color:#000814;stop-opacity:0;"
         offset="0.65743458"
         id="stop158" /></linearGradient><linearGradient
       inkscape:collect="always"
       xlink:href="#linearGradient157"
       id="linearGradient163"
       gradientUnits="userSpaceOnUse"
       gradientTransform="translate(755.4903,2224.7415)"
       x1="-5805.4424"
       y1="-1924.7986"
       x2="-4972.0293"
       y2="-1159.9999"
       spreadMethod="pad" /></defs><g
     id="g1"
     inkscape:groupmode="layer"
     inkscape:label="1"
     transform="matrix(0.26458333,0,0,0.26458334,1337.944,-76.948079)"><path
       id="path108-3-0-4-7-0-5-8"
       style="mix-blend-mode:normal;fill:url(#linearGradient163);fill-opacity:1"
       d="m -5020.5391,290.82738 c -13.8263,0 -22.2953,0.3676 -22.0898,0.957 0.1834,0.5258 12.482,25.0391 27.332,54.4746 14.85,29.4355 27.225,53.529 27.5,53.541 0.275,0.012 5.3458,-9.6316 11.2676,-21.4296 l 10.7676,-21.4512 -16.1778,-33.0449 -16.1757,-33.0469 z m 80.6602,0.0703 c -8.5282,0.0774 -11.918,0.3248 -11.918,0.7598 0,0.6363 4.3823,9.9354 9.7383,20.664 l 9.7383,19.5059 h 35.5234 35.5235 l 9.7929,-19.6133 c 5.3852,-10.7874 9.6147,-19.7875 9.4004,-20.0019 -0.2143,-0.2143 -24.9878,-0.6875 -55.0527,-1.0508 -20.5513,-0.2484 -34.218,-0.3412 -42.7461,-0.2637 z m 165.9492,0.9297 27.8163,54.9941 c 15.2989,30.2471 27.904,55 28.0098,55 0.1059,0.003 5.1771,-9.7816 11.2696,-21.7441 l 11.0762,-21.75 -16.2227,-33.25 -16.2246,-33.25 h -22.8613 z m 291.9647,1.2305 -21.5566,0.2695 27.5021,54.3594 27.5,54.3574 10.8828,-21.3574 10.8847,-21.3594 -15.5977,-32 c -8.5776,-17.6 -16.1487,-32.571 -16.8262,-33.2695 -0.9375,-0.966 -6.3841,-1.2055 -22.7891,-1 z m -145.6289,0.0117 -54.1131,0.2578 9.3828,19.2344 9.3828,19.2324 25.8223,0.3008 c 14.2023,0.1656 30.0972,0.2865 35.3222,0.2675 l 9.5,-0.0351 9.8203,-19.3457 c 5.4008,-10.6409 9.6346,-19.5335 9.4082,-19.7598 -0.2264,-0.2259 -24.7632,-0.2946 -54.5255,-0.1523 z m 270.297,0.7578 c -29.9751,0 -54.5,0.2633 -54.5,0.584 0,0.3206 4.2452,9.3253 9.4336,20.0117 l 9.4336,19.4297 35.209,-0.2617 35.2109,-0.2637 9.8399,-19 c 5.4121,-10.45 9.8474,-19.3375 9.8574,-19.75 0.01,-0.4125 -24.5094,-0.75 -54.4844,-0.75 z m 145.5625,0.2305 c -14.5382,-0.1761 -22.1244,0.0792 -21.9024,0.7343 0.187,0.5513 12.4898,25.0738 27.3399,54.4942 14.85,29.4203 27.2307,53.5016 27.5117,53.5156 0.2809,0.014 5.3393,-9.6459 11.2422,-21.4668 l 10.7324,-21.4922 -16.3417,-32.7578 -16.3418,-32.7578 z m -596.043,32.7949 c -0.4393,0.0211 -58.8929,115.2881 -59.8515,118.0234 -0.2043,0.5831 8.3099,0.9512 22.0058,0.9512 h 22.3399 l 18.8574,-37.7344 18.8594,-37.7324 -10.8457,-21.7676 c -5.9659,-11.9713 -11.0804,-21.7542 -11.3653,-21.7402 z m 269.5958,1.2695 c -0.5037,0.1679 -14.323,26.8223 -30.711,59.2305 -20.9073,41.3449 -29.4393,59.1499 -28.5996,59.6836 0.6581,0.4184 10.7573,0.7673 22.4434,0.7773 l 21.248,0.0137 19.1192,-38.2285 19.1191,-38.2305 -10.8516,-21.7754 c -5.9685,-11.9766 -11.2639,-21.6386 -11.7675,-21.4707 z m 269.3125,1.4766 c -0.3467,0.4008 -13.9726,27.166 -30.2813,59.4785 l -29.6523,58.75 22.2539,-0.0235 22.2519,-0.0253 18.9903,-37.4571 18.9902,-37.459 -10.9609,-21.9961 c -6.0289,-12.0977 -11.2453,-21.6683 -11.5918,-21.2675 z m -658.4278,43.2343 -18.8769,37.7051 -18.8789,37.7071 10.8496,21.7695 v 0.004 c 5.9671,11.9738 11.1336,21.4438 11.4804,21.043 0.3467,-0.4008 13.9649,-27.1661 30.2637,-59.4786 l 29.6348,-58.75 h -22.2364 z m 269.668,0.9942 -19.0723,37.5195 -19.0703,37.5195 11.2206,22.4668 11.2188,22.4668 29.7343,-59.2363 c 16.3537,-32.5797 29.7496,-59.5738 29.7676,-59.9863 0.018,-0.4125 -9.8287,-0.75 -21.8828,-0.75 z m 269.3729,0.498 -18.7422,37 c -10.3077,20.35 -18.7535,37.5424 -18.7695,38.2051 -0.016,0.6628 4.767,11.1253 10.6289,23.25 5.8619,12.1248 10.9244,22.0393 11.25,22.0293 0.747,-0.0183 60.4759,-118.9469 59.9668,-119.4023 -0.2064,-0.1846 -10.2646,-0.5039 -22.3535,-0.709 z m -644.5586,42.5137 c -0.2849,-0.005 -5.4526,9.8928 -11.4843,21.9961 l -10.9668,22.0059 16.4726,32.9941 16.4727,32.9941 h 22.5781 22.5762 l -27.5645,-54.9902 c -15.1611,-30.2451 -27.799,-55 -28.084,-55 z m 270.1465,2.8105 c -0.3454,-0.3731 -5.5455,8.8972 -11.5566,20.6016 l -10.9297,21.2813 16.3613,33.1484 16.3594,33.1465 h 22.3965 22.3965 l -27.1993,-53.75 c -14.9599,-29.5625 -27.4828,-54.0547 -27.8281,-54.4278 z m 269.1621,0.7715 c -0.4352,0.0516 -5.6404,9.5909 -11.5683,21.1993 l -10.7774,21.1074 16.5293,33.0508 16.5313,33.0488 h 22.4765 22.4766 l -27.4375,-54.25 c -15.0907,-29.8375 -27.7952,-54.2083 -28.2305,-54.1563 z m 270.0469,0.752 c -1.1805,-0.3388 -3.3292,3.5824 -11.8281,20.6367 l -10.9785,22.0313 16.4726,32.9941 16.4727,32.9941 h 22.7832 22.7851 l -3.8886,-7.25 c -2.1385,-3.9875 -14.2733,-27.95 -26.9668,-53.25 -12.6936,-25.2999 -23.6702,-46.7988 -24.3907,-47.7754 -0.1448,-0.1963 -0.2922,-0.3324 -0.4609,-0.3808 z m -665.8613,65.6562 -9.7383,19.5059 c -5.356,10.7286 -9.7383,19.7179 -9.7383,19.9766 0,0.2587 7.9875,0.6058 17.75,0.7695 35.1735,0.5899 92.25,0.7371 92.25,0.2383 0,-0.2802 -4.5013,-9.5052 -10.0039,-20.5 l -10.0059,-19.9903 h -35.2558 z m 270.3203,1.625 c -0.8154,0.5039 -19.7969,37.7665 -19.7969,38.8633 0,0.2805 24.5251,0.5098 54.5,0.5098 29.975,0 54.5,-0.2293 54.5,-0.5098 0,-0.2805 -4.2405,-8.9819 -9.4238,-19.3379 l -9.4238,-18.8301 -34.7442,-0.6152 c -19.1093,-0.3387 -35.1345,-0.3749 -35.6113,-0.0801 z m 269.2266,0.3477 -10.0098,20.0019 -10.0098,20 37.7481,0.2735 c 20.7618,0.151 45.5105,0.383 54.998,0.5137 9.4875,0.1306 17.213,-0.1012 17.168,-0.5137 -0.045,-0.4125 -4.4326,-9.525 -9.75,-20.25 l -9.668,-19.5 -35.2383,-0.2617 z m -694.1836,72.02541 27.33,53.9961 c 15.0316,29.6971 27.555,53.9904 27.8301,53.9804 0.275,-0.01 5.3019,-9.4674 11.1699,-21.0214 l 10.668,-21.0079 -16.1055,-32.9726 -16.1074,-32.9746 h -22.3926 z m 124.0078,0.1504 c -18.2149,-0.081 -32.8477,0.017 -32.8477,0.3437 0,0.2714 4.3849,9.2763 9.7442,20.0117 l 9.7441,19.5196 35.5039,-0.2617 35.5039,-0.2637 9.6895,-19 9.6894,-19 -22.6875,-0.6192 c -14.3273,-0.3907 -36.1249,-0.6494 -54.3398,-0.7304 z m 145.0019,0.8515 11.9629,23.25 c 6.5799,12.7875 18.9897,37.3125 27.5781,54.5 8.5883,17.1875 15.9564,31.25 16.3731,31.25 0.4167,0 5.5997,-9.6977 11.5176,-21.5488 l 10.7597,-21.5469 -16.1836,-32.9531 -16.1855,-32.9512 h -22.9121 z m 146.2813,0.4453 c -27.1109,-0.2436 -54.1309,-0.3066 -54.1309,0.053 0,0.4373 4.2453,9.5045 9.4336,20.1484 l 9.4336,19.3516 h 35.5625 35.5606 l 9.5644,-19.1074 c 5.2602,-10.5092 9.4238,-19.2454 9.2539,-19.4141 -0.3652,-0.3627 -27.5668,-0.7876 -54.6777,-1.0313 z m 123.7129,0.5528 16.4687,32.25 c 9.0587,17.7375 21.5115,42.3418 27.6719,54.6758 l 11.2012,22.4257 10.9082,-21.3496 c 5.9994,-11.7423 10.9063,-21.6767 10.9063,-22.0761 0,-0.3994 -7.2593,-15.3964 -16.1329,-33.3262 l -16.1347,-32.5996 h -22.4454 z m 146.1562,0 c -30.25,0 -55,0.2293 -55,0.5098 0,1.2901 19.3733,39.0765 20.3711,39.7324 0.6208,0.408 16.6539,0.6331 35.6289,0.5 l 34.5,-0.2422 9.7051,-19 c 5.3372,-10.45 9.725,-19.5625 9.75,-20.25 0.036,-0.9854 -11.5973,-1.25 -54.9551,-1.25 z m 146.168,1.0157 c -12.2833,-0.01 -22.1813,0.3199 -21.9942,0.7324 0.187,0.4125 12.4877,24.9364 27.334,54.498 v 0 c 14.8463,29.5615 27.2229,53.7491 27.5039,53.75 0.2809,8e-4 5.3244,-9.6415 11.209,-21.4258 l 10.6992,-21.4258 -16.2089,-33.0566 -16.211,-33.0567 z m 68.916,1.248 c -0.097,0.2379 0.2404,1.3528 1.0781,3.1914 0.6394,1.4032 1.3514,2.3654 1.5801,2.1367 0.2287,-0.2287 -0.277,-1.6928 -1.123,-3.2539 -0.9059,-1.6715 -1.4382,-2.3121 -1.5352,-2.0742 z m -665.0644,31.7481 c -0.5614,0.015 -60.0196,117.2716 -60.0196,118.3632 0,0.3637 9.9456,0.5406 22.0996,0.3926 l 22.0977,-0.2695 19.0586,-37.3985 19.0605,-37.3964 -10.8906,-21.8536 c -5.9894,-12.0184 -11.1214,-21.8478 -11.4062,-21.8378 z m 269.4882,1.1464 c -1.5315,1.5313 -59.3554,117.2772 -58.9316,117.9629 0.2985,0.4831 10.1181,0.877 21.8223,0.877 h 21.2812 l 18.6603,-36.8672 c 10.2635,-20.2776 18.6601,-37.6075 18.6601,-38.5098 0,-1.8146 -20.8919,-44.0634 -21.4923,-43.4629 z m 269.4434,0.4961 c -0.9836,0.9913 -59.9512,117.7412 -59.9512,118.6973 0,0.3566 10.1245,0.6484 22.4981,0.6484 h 22.498 l 18.8418,-37.75 18.8438,-37.75 -10.9454,-22.3457 c -6.0202,-12.2895 -11.3243,-21.9645 -11.7851,-21.5 z m -658.5663,43.3457 -19.2266,37.9219 -19.2285,37.9238 11.25,22.5274 c 6.188,12.3906 11.3707,22.4085 11.5176,22.2617 0.7388,-0.7388 60.3027,-119.0565 60.3027,-119.7852 0,-0.4679 -10.0375,-0.8496 -22.3066,-0.8496 z m 291.5721,2.2305 -22.0429,0.2676 -18.8809,37.1719 -18.8808,37.1718 10.9843,22.2969 10.9825,22.2969 29.9414,-59.2871 c 16.4672,-32.6083 29.9394,-59.491 29.9394,-59.7383 0,-0.2474 -9.9191,-0.3277 -22.043,-0.1797 z m 292.0821,0.7305 -22.2695,0.2695 -22.2696,0.2676 -18.7715,37 -18.7715,37 10.7403,22.3105 c 9.6304,20.0044 10.883,22.1234 12.1015,20.5 0.7474,-0.9958 14.3812,-27.8051 30.2989,-59.5781 z m -689.0489,43.0586 c -0.281,-0.011 -5.2903,9.5481 -11.1308,21.2441 l -10.6192,21.2656 16.0412,32.7344 16.041,32.7344 h 22.3984 22.3985 l -27.3086,-53.9785 c -15.0202,-29.6891 -27.5395,-53.989 -27.8205,-54 z m 269.9688,0.5996 c -0.4502,-0.4842 -5.7453,8.9634 -11.7656,20.9941 l -10.9453,21.8731 16.6191,33.2578 16.6191,33.2558 h 22.2579 c 12.2413,0 22.2558,-0.2964 22.2558,-0.6582 0,-0.9111 -54.0283,-107.6333 -55.041,-108.7226 z m 269.2266,0.027 -10.9375,21.8555 -10.9356,21.8555 16.0078,32.7714 16.0059,32.7715 4.088,0.3731 c 2.2477,0.2062 12.2983,0.4547 22.3359,0.5507 14.0402,0.1344 18.2437,-0.1145 18.2207,-1.0761 -0.017,-0.6875 -12.3507,-25.5167 -27.4082,-55.1758 z m 269.8144,2.3789 c -0.2749,0.01 -5.3939,9.5684 -11.375,21.2442 l -10.873,21.2285 16.3672,32.75 16.3671,32.75 h 22.3379 22.336 l -27.3301,-53.9942 c -15.0315,-29.6971 -27.555,-53.9885 -27.8301,-53.9785 z m -595.0215,65.9473 -35.2402,0.2637 -35.2383,0.2617 -9.7031,19 c -5.3371,10.45 -9.725,19.3375 -9.75,19.75 -0.025,0.4125 24.4782,0.75 54.4531,0.75 36.0264,0 54.5,-0.3422 54.5,-1.0098 0,-0.5555 -4.2803,-9.5602 -9.5117,-20.0117 z m 199.5215,0.5273 -10.1445,20 -10.1465,20 45.6465,0.5157 c 25.1052,0.2834 49.7327,0.6209 54.7285,0.75 4.9958,0.1292 9.3595,-0.043 9.6973,-0.3809 0.3378,-0.3378 -3.8641,-9.5628 -9.3379,-20.5 l -9.9531,-19.8848 -30.4942,-0.209 c -16.7724,-0.1146 -32.6336,-0.227 -35.2461,-0.25 z m 269.5098,1.4981 -10.0098,20 -10.0097,20 h 55.0195 55.0177 l -1.375,-3.25 c -0.7561,-1.7875 -5.1439,-10.7875 -9.75,-20 l -8.3731,-16.75 h -35.2597 z m -548.3906,71.8105 c -27.3538,-0.048 -54.6193,0.08 -54.6192,0.4336 3e-4,0.4089 4.3823,9.5214 9.7383,20.25 l 9.7383,19.5078 h 35.5234 35.5235 l 9.793,-19.6133 c 5.3853,-10.7873 9.6391,-19.7651 9.4531,-19.9511 -0.354,-0.354 -27.7966,-0.5792 -55.1504,-0.627 z m -145.7793,0.1895 27.33,53.9961 c 15.0316,29.6971 27.5551,53.9924 27.8301,53.9824 0.275,-0.01 5.3712,-9.6116 11.3242,-21.3438 l 10.8242,-21.332 -16.3163,-32.6504 -16.3164,-32.6523 h -22.338 z m 269.1562,0 27.5704,55.1309 c 15.1633,30.3227 27.9233,54.7352 28.3554,54.25 0.4323,-0.4852 5.6325,-10.3377 11.5547,-21.8945 l 10.7676,-21.0118 -16.625,-33.2382 -16.625,-33.2364 h -22.4981 z m 135.957,1.0176 c -22.7902,-0.037 -43.953,0.1101 -43.953,0.4746 0,0.2714 4.3823,9.2714 9.7383,20 l 9.7383,19.5059 h 35.0234 35.0235 l 9.662,-19.3516 9.6602,-19.3516 -11.172,-0.6425 c -6.5113,-0.3753 -30.9304,-0.5976 -53.7207,-0.6348 z m 156.8087,0.9805 c -11.9692,0 -21.7617,0.229 -21.7617,0.5078 0,0.7488 26.252,53.1682 41.1875,82.2422 7.134,13.8875 13.1598,25.25 13.3887,25.25 0.2288,0 5.1967,-9.5542 11.041,-21.2325 l 10.627,-21.2343 -16.3594,-32.7657 -16.3594,-32.7675 z m 68.2286,0 10.0097,20 10.0097,20 h 35.2579 35.2559 l 9.6816,-19.3907 c 5.3242,-10.6649 9.4052,-19.665 9.0703,-20 -0.3349,-0.3349 -25.0613,-0.6093 -54.9473,-0.6093 z m 179.0136,1 27.2442,54.5 c 14.9845,29.9749 27.3566,54.5 27.4941,54.5 0.1374,0 5.1351,-9.7875 11.1055,-21.75 l 10.8554,-21.75 -16.0234,-32.75 -16.0234,-32.75 h -22.3262 z m -573.7109,31.6523 -3.5156,6.4238 c -3.8862,7.0991 -56.7732,111.9343 -56.7754,112.543 0,0.2082 10.0116,0.377 22.248,0.377 h 22.25 l 18.7227,-37.3965 18.7246,-37.3965 -10.8263,-22.2754 z m 269.3672,1.6387 c -0.8317,0.2681 -60.5937,117.5128 -60.6367,118.9609 -0.012,0.4125 10.0769,0.75 22.4218,0.75 h 22.4453 l 19.0704,-37.75 19.0683,-37.75 -10.7638,-22.2422 c -5.9204,-12.2324 -11.1427,-22.1178 -11.6053,-21.9687 z m 270.2851,2.3652 c -0.8748,-1.0071 -6.177,9.0215 -37.3242,70.5938 l -23.6484,46.75 h 22.4375 22.4375 l 18.6855,-37.1426 18.6836,-37.1426 -10.2695,-21.1074 c -5.6481,-11.6089 -10.5988,-21.4868 -11.002,-21.9512 z m -637.6953,42.5742 -21.75,0.2696 -18.9141,37.5761 -18.916,37.5762 10.834,22.17191 c 5.9588,12.1947 10.9248,22.0601 11.0352,21.9238 1.1474,-1.4164 59.4609,-117.73511 59.4609,-118.60741 0,-0.8764 -5.5738,-1.1107 -21.75,-0.9102 z m 247.8985,0.7696 -19.1583,37.75 -19.1601,37.75 11.1699,22.42381 11.168,22.4238 29.9159,-59.26361 c 16.454,-32.5949 29.9161,-59.6734 29.9161,-60.1739 0,-0.5192 -9.4186,-0.9101 -21.9258,-0.9101 z m 269.3515,1.0097 -19.1621,37.7461 -19.1621,37.7461 11.1523,22.25001 v 0 c 6.1333,12.2375 11.3814,22.2386 11.6622,22.2266 0.6018,-0.027 60.0672,-118.12641 60.0332,-119.22661 -0.013,-0.4125 -10.0359,-0.7461 -22.2735,-0.7461 z m -644.7012,42.9961 c -0.7949,-0.01 -21.7988,41.3437 -21.7988,42.9141 0,0.55931 7.2956,15.65611 16.2129,33.54881 l 16.2148,32.5332 h 22.2852 c 12.2577,0 22.2871,-0.2963 22.2871,-0.6582 0,-1.3278 -54.5222,-108.33791 -55.2012,-108.33791 z m 539.4667,1.8106 -11.1425,21.5781 -11.1406,21.58011 16.5118,33.0136 16.5117,33.0118 h 21.9979 c 12.0984,0 21.9962,-0.2277 21.9962,-0.5059 0,-0.6548 -30.7561,-62.0068 -44.2832,-88.33591 z m -269.0995,0.8047 c -1.1388,0.037 -3.789,4.7152 -11.6191,20.0859 l -10.9356,21.46681 16.4317,32.9141 16.4336,32.9121 h 22.2461 22.2461 l -26.6524,-52.75 c -14.659,-29.01251 -27.1437,-53.48271 -27.7441,-54.37891 -0.1117,-0.1667 -0.2436,-0.2553 -0.4063,-0.25 z m 538.5899,0.3925 c -0.7698,-0.013 -21.7559,41.29991 -21.7559,42.82821 0,0.4719 7.2226,15.5498 16.0488,33.5078 l 16.0469,32.6523 h 22.4531 c 12.3489,0 22.4512,-0.2908 22.4512,-0.6465 0,-1.3709 -54.5391,-108.32981 -55.2441,-108.34181 z m -665.2793,65.98831 -9.7383,19.5059 c -5.3559,10.7286 -9.7383,19.9536 -9.7383,20.5 0,0.6458 19.2445,0.9941 55,0.9941 30.25,0 55,-0.2294 55,-0.5097 0,-0.2802 -4.5013,-9.5053 -10.0039,-20.5 l -10.0059,-19.9903 h -35.2558 z m 539.6464,1.7735 -10.0567,20.0937 -10.0566,20.0957 23.7441,0.2871 c 51.5108,0.6227 86.2461,0.7259 86.2461,0.2559 0,-0.2714 -4.3824,-9.2714 -9.7383,-20 l -9.7382,-19.5078 h -32.1367 c -17.6752,0 -33.5142,-0.2744 -35.1992,-0.6114 z m -270.1133,0.2246 -9.5038,18.9902 c -5.2279,10.4445 -9.5059,19.2167 -9.5059,19.4922 0,0.2756 23.5124,0.6288 52.25,0.7851 61.8563,0.3365 56.2941,0.414 56.0663,-0.791 -0.1016,-0.5369 -4.2654,-9.414 -9.2538,-19.7265 l -9.0704,-18.75 h -35.4902 z"
       inkscape:export-filename="patterns_deco.svg"
       inkscape:export-xdpi="300"
       inkscape:export-ydpi="300" /></g></svg>
