<?xml version="1.0" standalone="no"?>
<!DOCTYPE svg PUBLIC "-//W3C//DTD SVG 20010904//EN"
 "http://www.w3.org/TR/2001/REC-SVG-20010904/DTD/svg10.dtd">
<svg version="1.0" xmlns="http://www.w3.org/2000/svg"
 width="700.000000pt" height="700.000000pt" viewBox="0 0 700.000000 700.000000"
 preserveAspectRatio="xMidYMid meet">
<metadata>
Created by potrace 1.14, written by Peter Selinger 2001-2017
</metadata>
<g transform="translate(0.000000,700.000000) scale(0.100000,-0.100000)"
fill="#000000" stroke="none">
<path d="M5067 6089 c-114 -23 -234 -97 -318 -196 -26 -31 -26 -31 -155 -37
-71 -3 -149 -8 -174 -11 -120 -14 -337 -49 -440 -71 -63 -14 -122 -27 -130
-29 -8 -1 -35 -8 -60 -15 -25 -7 -52 -14 -60 -15 -23 -5 -250 -74 -295 -89
-209 -74 -266 -95 -370 -138 -244 -102 -536 -245 -740 -363 -132 -76 -385
-243 -510 -335 -336 -250 -653 -566 -807 -805 -73 -113 -156 -291 -184 -395
-48 -180 -70 -399 -52 -540 10 -83 18 -143 22 -160 21 -103 22 -101 -41 -191
-314 -448 -396 -628 -397 -868 0 -121 8 -177 40 -275 81 -247 283 -431 549
-502 67 -18 139 -19 1640 -19 l1570 0 0 165 -1 165 -949 2 c-523 1 -1218 3
-1545 3 -356 1 -613 5 -639 11 -154 35 -281 165 -317 326 -21 97 -6 250 33
328 47 93 344 553 472 730 74 103 226 300 256 331 11 12 45 50 75 85 119 139
330 340 488 466 91 73 359 256 432 296 14 7 63 35 110 62 311 177 629 267 810
230 149 -31 237 -132 276 -315 15 -69 22 -288 11 -307 -3 -4 -8 -33 -12 -63
-11 -90 -53 -238 -101 -359 -231 -578 -677 -972 -1174 -1037 -60 -7 -268 -8
-315 0 -17 2 -55 7 -85 11 -139 17 -276 58 -401 120 -115 56 -169 94 -257 181
l-73 72 -78 -116 c-42 -65 -80 -122 -84 -129 -8 -12 96 -117 173 -176 271
-206 604 -309 993 -308 72 0 143 2 157 5 13 3 42 8 65 11 107 15 272 66 389
120 304 140 572 379 781 695 89 134 163 272 209 385 15 39 32 79 36 90 71 170
118 425 118 635 -1 351 -110 582 -350 737 -56 36 -188 80 -274 91 -346 45
-784 -117 -1329 -493 -245 -168 -414 -311 -611 -515 -109 -112 -253 -275 -313
-352 -40 -53 -51 -59 -46 -25 2 12 6 47 10 77 18 147 80 335 146 444 10 17 26
45 35 61 24 43 114 160 176 230 253 284 678 618 1067 838 346 195 655 336 976
445 106 36 317 98 364 107 9 1 36 8 61 15 25 7 54 14 65 16 17 3 107 22 140
29 6 1 33 5 60 9 75 11 87 13 125 20 55 10 107 15 218 22 l102 7 1 -32 c1 -17
2 -34 3 -38 1 -5 6 -24 10 -43 19 -79 70 -165 146 -241 110 -111 231 -164 380
-168 198 -5 407 116 499 289 l32 60 57 -31 c331 -181 622 -483 622 -645 0 -38
-30 -107 -75 -174 -64 -94 -205 -236 -470 -475 -167 -150 -209 -190 -346 -325
-116 -116 -210 -217 -306 -333 -13 -15 -51 -66 -86 -115 -306 -424 -452 -867
-412 -1250 10 -87 51 -237 89 -318 180 -382 620 -635 1146 -658 24 -1 25 2 30
69 3 39 5 114 5 169 l0 98 -40 3 c-126 8 -298 46 -413 93 -192 79 -347 212
-420 363 -58 117 -72 188 -68 334 7 248 110 525 302 815 107 161 224 300 404
480 141 141 182 179 366 345 392 352 528 513 599 706 32 86 38 215 16 309 -44
182 -185 384 -391 557 -129 108 -393 268 -525 318 -58 21 -61 24 -93 91 -81
166 -209 273 -382 317 -64 17 -175 19 -243 6z m188 -340 c54 -15 120 -82 134
-137 45 -167 -79 -304 -253 -278 -95 15 -167 101 -172 206 -7 153 132 253 291
209z"/>
</g>
</svg>
